{
  "accessors": [
    {
      "bufferView": 2,
      "componentType": 5126,
      "count": 6328,
      "max": [
        0.5171458721160889,
        5.354962348937988,
        1.8298569917678833
      ],
      "min": [
        -0.5171458721160889,
        -1.613787055015564,
        -4.535658836364746
      ],
      "type": "VEC3"
    },
    {
      "bufferView": 2,
      "byteOffset": 75936,
      "componentType": 5126,
      "count": 6328,
      "max": [
        1.0,
        0.9999992847442627,
        0.9999983310699463
      ],
      "min": [
        -1.0,
        -0.9999996423721313,
        -0.9997586011886597
      ],
      "type": "VEC3"
    },
    {
      "bufferView": 3,
      "componentType": 5126,
      "count": 6328,
      "max": [
        1.0,
        0.9980149865150452,
        0.9988656044006348,
        1.0
      ],
      "min": [
        -1.0,
        -0.999990701675415,
        -0.999670684337616,
        -1.0
      ],
      "type": "VEC4"
    },
    {
      "bufferView": 1,
      "componentType": 5126,
      "count": 6328,
      "max": [
        0.9986306428909302,
        0.999755859375
      ],
      "min": [
        0.000244140625,
        0.000244140625
      ],
      "type": "VEC2"
    },
    {
      "bufferView": 1,
      "byteOffset": 50624,
      "componentType": 5126,
      "count": 6328,
      "max": [
        0.9986306428909302,
        0.999755859375
      ],
      "min": [
        0.000244140625,
        0.000244140625
      ],
      "type": "VEC2"
    },
    {
      "bufferView": 1,
      "byteOffset": 101248,
      "componentType": 5126,
      "count": 6328,
      "max": [
        0.9986306428909302,
        0.999755859375
      ],
      "min": [
        0.000244140625,
        0.000244140625
      ],
      "type": "VEC2"
    },
    {
      "bufferView": 0,
      "componentType": 5125,
      "count": 27114,
      "type": "SCALAR"
    }
  ],
  "asset": {
    "extras": {
      "author": "yon4z (https://sketchfab.com/yon4z)",
      "license": "CC-BY-4.0 (http://creativecommons.org/licenses/by/4.0/)",
      "source": "https://sketchfab.com/3d-models/doom-supershotgun-277049ab83f14ecc86551d2eb4931f48",
      "title": "DOOM Supershotgun"
    },
    "generator": "Sketchfab-12.68.0",
    "version": "2.0"
  },
  "bufferViews": [
    {
      "buffer": 0,
      "byteLength": 108456,
      "name": "floatBufferViews",
      "target": 34963
    },
    {
      "buffer": 0,
      "byteLength": 151872,
      "byteOffset": 108456,
      "byteStride": 8,
      "name": "floatBufferViews",
      "target": 34962
    },
    {
      "buffer": 0,
      "byteLength": 151872,
      "byteOffset": 260328,
      "byteStride": 12,
      "name": "floatBufferViews",
      "target": 34962
    },
    {
      "buffer": 0,
      "byteLength": 101248,
      "byteOffset": 412200,
      "byteStride": 16,
      "name": "floatBufferViews",
      "target": 34962
    }
  ],
  "buffers": [
    {
      "byteLength": 513448,
      "uri": "scene.bin"
    }
  ],
  "images": [
    {
      "uri": "textures/Supershotgun_baseColor.png"
    },
    {
      "uri": "textures/Supershotgun_metallicRoughness.png"
    },
    {
      "uri": "textures/Supershotgun_normal.png"
    }
  ],
  "materials": [
    {
      "doubleSided": true,
      "name": "Supershotgun",
      "normalTexture": {
        "index": 2
      },
      "pbrMetallicRoughness": {
        "baseColorTexture": {
          "index": 0
        },
        "metallicRoughnessTexture": {
          "index": 1
        }
      }
    }
  ],
  "meshes": [
    {
      "name": "Front_low_Supershotgun_0",
      "primitives": [
        {
          "attributes": {
            "NORMAL": 1,
            "POSITION": 0,
            "TANGENT": 2,
            "TEXCOORD_0": 3,
            "TEXCOORD_1": 4,
            "TEXCOORD_2": 5
          },
          "indices": 6,
          "material": 0,
          "mode": 4
        }
      ]
    }
  ],
  "nodes": [
    {
      "children": [
        1
      ],
      "matrix": [
        1.0,
        0.0,
        0.0,
        0.0,
        0.0,
        2.220446049250313e-16,
        -1.0,
        0.0,
        0.0,
        1.0,
        2.220446049250313e-16,
        0.0,
        0.0,
        0.0,
        0.0,
        1.0
      ],
      "name": "Sketchfab_model"
    },
    {
      "children": [
        2
      ],
      "matrix": [
        1.0,
        0.0,
        0.0,
        0.0,
        0.0,
        0.0,
        1.0,
        0.0,
        0.0,
        -1.0,
        0.0,
        0.0,
        0.0,
        0.0,
        0.0,
        1.0
      ],
      "name": "41cacf635f114eb3be33df22b73d09d5.fbx"
    },
    {
      "children": [
        3
      ],
      "name": "RootNode"
    },
    {
      "children": [
        4
      ],
      "matrix": [
        99.9999771118164,
        -1.2525874034936592e-14,
        -3.870320952007593e-15,
        0.0,
        3.870329126565604e-15,
        56.411527912927475,
        -82.56960408363967,
        0.0,
        1.2525874649769396e-14,
        82.56960408363967,
        56.411527912927475,
        0.0,
        -8.881784197001252e-14,
        8.550002098083496,
        219.01638793945313,
        1.0
      ],
      "name": "Front_low"
    },
    {
      "mesh": 0,
      "name": "Front_low_Supershotgun_0"
    }
  ],
  "samplers": [
    {
      "magFilter": 9729,
      "minFilter": 9987,
      "wrapS": 10497,
      "wrapT": 10497
    }
  ],
  "scene": 0,
  "scenes": [
    {
      "name": "Sketchfab_Scene",
      "nodes": [
        0
      ]
    }
  ],
  "textures": [
    {
      "sampler": 0,
      "source": 0
    },
    {
      "sampler": 0,
      "source": 1
    },
    {
      "sampler": 0,
      "source": 2
    }
  ]
}
