{
  "accessors": [
    {
      "bufferView": 2,
      "componentType": 5126,
      "count": 9699,
      "max": [
        0.19460000097751617,
        1.382207989692688,
        0.20212900638580322
      ],
      "min": [
        -0.19460000097751617,
        -1.4308110475540161,
        -1.0772299766540527
      ],
      "type": "VEC3"
    },
    {
      "bufferView": 2,
      "byteOffset": 116388,
      "componentType": 5126,
      "count": 9699,
      "max": [
        1.0,
        1.0,
        1.0
      ],
      "min": [
        -1.0,
        -1.0,
        -1.0
      ],
      "type": "VEC3"
    },
    {
      "bufferView": 3,
      "componentType": 5126,
      "count": 9699,
      "max": [
        1.0,
        0.9999985098838806,
        1.0,
        1.0
      ],
      "min": [
        -1.0,
        -1.0,
        -1.0,
        -1.0
      ],
      "type": "VEC4"
    },
    {
      "bufferView": 1,
      "componentType": 5126,
      "count": 9699,
      "max": [
        0.9128869771957397,
        0.9995530247688293
      ],
      "min": [
        0.000446999998530373,
        0.000446999998530373
      ],
      "type": "VEC2"
    },
    {
      "bufferView": 0,
      "componentType": 5125,
      "count": 34932,
      "type": "SCALAR"
    },
    {
      "bufferView": 2,
      "byteOffset": 232776,
      "componentType": 5126,
      "count": 8633,
      "max": [
        0.12397199869155884,
        0.630236029624939,
        0.023545999079942703
      ],
      "min": [
        -0.12397199869155884,
        -0.7655779719352722,
        -0.2811560034751892
      ],
      "type": "VEC3"
    },
    {
      "bufferView": 2,
      "byteOffset": 336372,
      "componentType": 5126,
      "count": 8633,
      "max": [
        1.0,
        1.0,
        1.0
      ],
      "min": [
        -1.0,
        -1.0,
        -1.0
      ],
      "type": "VEC3"
    },
    {
      "bufferView": 3,
      "byteOffset": 155184,
      "componentType": 5126,
      "count": 8633,
      "max": [
        1.0,
        1.0,
        0.9999836087226868,
        1.0
      ],
      "min": [
        -1.0,
        -1.0,
        -1.0,
        -1.0
      ],
      "type": "VEC4"
    },
    {
      "bufferView": 1,
      "byteOffset": 77592,
      "componentType": 5126,
      "count": 8633,
      "max": [
        0.8340979814529419,
        0.8275790214538574
      ],
      "min": [
        0.3285380005836487,
        0.5124419927597046
      ],
      "type": "VEC2"
    },
    {
      "bufferView": 0,
      "byteOffset": 139728,
      "componentType": 5125,
      "count": 30648,
      "type": "SCALAR"
    },
    {
      "bufferView": 2,
      "byteOffset": 439968,
      "componentType": 5126,
      "count": 7646,
      "max": [
        0.20103199779987335,
        0.2907170057296753,
        0.23390500247478485
      ],
      "min": [
        -0.20103199779987335,
        -1.439046025276184,
        -1.077275037765503
      ],
      "type": "VEC3"
    },
    {
      "bufferView": 2,
      "byteOffset": 531720,
      "componentType": 5126,
      "count": 7646,
      "max": [
        1.0,
        1.0,
        1.0
      ],
      "min": [
        -1.0,
        -1.0,
        -1.0
      ],
      "type": "VEC3"
    },
    {
      "bufferView": 3,
      "byteOffset": 293312,
      "componentType": 5126,
      "count": 7646,
      "max": [
        1.0,
        1.0,
        1.0,
        1.0
      ],
      "min": [
        -1.0,
        -0.9999960660934448,
        -1.0,
        -1.0
      ],
      "type": "VEC4"
    },
    {
      "bufferView": 1,
      "byteOffset": 146656,
      "componentType": 5126,
      "count": 7646,
      "max": [
        0.9991250038146973,
        0.9660549759864807
      ],
      "min": [
        0.0007510000141337514,
        0.0007510000141337514
      ],
      "type": "VEC2"
    },
    {
      "bufferView": 0,
      "byteOffset": 262320,
      "componentType": 5125,
      "count": 32412,
      "type": "SCALAR"
    },
    {
      "bufferView": 2,
      "byteOffset": 623472,
      "componentType": 5126,
      "count": 7982,
      "max": [
        0.19635899364948273,
        0.28960999846458435,
        0.22966299951076508
      ],
      "min": [
        -0.19616499543190002,
        -0.9060099720954895,
        -0.9891380071640015
      ],
      "type": "VEC3"
    },
    {
      "bufferView": 2,
      "byteOffset": 719256,
      "componentType": 5126,
      "count": 7982,
      "max": [
        1.0,
        1.0,
        1.0
      ],
      "min": [
        -1.0,
        -1.0,
        -1.0
      ],
      "type": "VEC3"
    },
    {
      "bufferView": 3,
      "byteOffset": 415648,
      "componentType": 5126,
      "count": 7982,
      "max": [
        1.0,
        1.0,
        1.0,
        1.0
      ],
      "min": [
        -1.0,
        -1.0,
        -1.0,
        -1.0
      ],
      "type": "VEC4"
    },
    {
      "bufferView": 1,
      "byteOffset": 207824,
      "componentType": 5126,
      "count": 7982,
      "max": [
        0.9928669929504395,
        0.9631289839744568
      ],
      "min": [
        0.0007469999836757779,
        0.0005859999801032245
      ],
      "type": "VEC2"
    },
    {
      "bufferView": 0,
      "byteOffset": 391968,
      "componentType": 5125,
      "count": 28290,
      "type": "SCALAR"
    },
    {
      "bufferView": 2,
      "byteOffset": 815040,
      "componentType": 5126,
      "count": 3458,
      "max": [
        0.09188000112771988,
        2.112023115158081,
        0.2672770023345947
      ],
      "min": [
        -0.09188000112771988,
        0.21236899495124817,
        -0.22279399633407593
      ],
      "type": "VEC3"
    },
    {
      "bufferView": 2,
      "byteOffset": 856536,
      "componentType": 5126,
      "count": 3458,
      "max": [
        1.0,
        1.0,
        1.0
      ],
      "min": [
        -1.0,
        -1.0,
        -1.0
      ],
      "type": "VEC3"
    },
    {
      "bufferView": 3,
      "byteOffset": 543360,
      "componentType": 5126,
      "count": 3458,
      "max": [
        1.0,
        1.0,
        1.0,
        1.0
      ],
      "min": [
        -0.9999949932098389,
        -1.0,
        -0.9985701441764832,
        -1.0
      ],
      "type": "VEC4"
    },
    {
      "bufferView": 1,
      "byteOffset": 271680,
      "componentType": 5126,
      "count": 3458,
      "max": [
        0.9289180040359497,
        0.9241480231285095
      ],
      "min": [
        0.0007510000141337514,
        0.0008759999764151871
      ],
      "type": "VEC2"
    },
    {
      "bufferView": 0,
      "byteOffset": 505128,
      "componentType": 5125,
      "count": 12141,
      "type": "SCALAR"
    }
  ],
  "asset": {
    "extras": {
      "author": "Blockster_9 (https://sketchfab.com/Blockster_9)",
      "license": "CC-BY-4.0 (http://creativecommons.org/licenses/by/4.0/)",
      "source": "https://sketchfab.com/3d-models/caldwell-conversion-uppercut-a7fceef1ddb4445caf29b9ebb455652c",
      "title": "Caldwell Conversion Uppercut"
    },
    "generator": "Sketchfab-13.17.0",
    "version": "2.0"
  },
  "bufferViews": [
    {
      "buffer": 0,
      "byteLength": 553692,
      "name": "floatBufferViews",
      "target": 34963
    },
    {
      "buffer": 0,
      "byteLength": 299344,
      "byteOffset": 553692,
      "byteStride": 8,
      "name": "floatBufferViews",
      "target": 34962
    },
    {
      "buffer": 0,
      "byteLength": 898032,
      "byteOffset": 853036,
      "byteStride": 12,
      "name": "floatBufferViews",
      "target": 34962
    },
    {
      "buffer": 0,
      "byteLength": 598688,
      "byteOffset": 1751068,
      "byteStride": 16,
      "name": "floatBufferViews",
      "target": 34962
    }
  ],
  "buffers": [
    {
      "byteLength": 2349756,
      "uri": "scene.bin"
    }
  ],
  "images": [
    {
      "uri": "textures/CaldwellConversionUppercut_1_baseColor.png"
    },
    {
      "uri": "textures/CaldwellConversionUppercut_1_metallicRoughness.png"
    },
    {
      "uri": "textures/CaldwellConversionUppercut_1_normal.png"
    },
    {
      "uri": "textures/CaldwellConversionUppercut_2_baseColor.png"
    },
    {
      "uri": "textures/CaldwellConversionUppercut_2_metallicRoughness.png"
    },
    {
      "uri": "textures/CaldwellConversionUppercut_2_normal.png"
    }
  ],
  "materials": [
    {
      "doubleSided": true,
      "name": "CaldwellConversionUppercut_1",
      "normalTexture": {
        "index": 2
      },
      "pbrMetallicRoughness": {
        "baseColorTexture": {
          "index": 0
        },
        "metallicRoughnessTexture": {
          "index": 1
        }
      }
    },
    {
      "doubleSided": true,
      "name": "CaldwellConversionUppercut_2",
      "normalTexture": {
        "index": 5
      },
      "pbrMetallicRoughness": {
        "baseColorTexture": {
          "index": 3
        },
        "metallicRoughnessTexture": {
          "index": 4
        }
      }
    }
  ],
  "meshes": [
    {
      "name": "Object_0",
      "primitives": [
        {
          "attributes": {
            "NORMAL": 1,
            "POSITION": 0,
            "TANGENT": 2,
            "TEXCOORD_0": 3
          },
          "indices": 4,
          "material": 0,
          "mode": 4
        }
      ]
    },
    {
      "name": "Object_1",
      "primitives": [
        {
          "attributes": {
            "NORMAL": 6,
            "POSITION": 5,
            "TANGENT": 7,
            "TEXCOORD_0": 8
          },
          "indices": 9,
          "material": 0,
          "mode": 4
        }
      ]
    },
    {
      "name": "Object_2",
      "primitives": [
        {
          "attributes": {
            "NORMAL": 11,
            "POSITION": 10,
            "TANGENT": 12,
            "TEXCOORD_0": 13
          },
          "indices": 14,
          "material": 1,
          "mode": 4
        }
      ]
    },
    {
      "name": "Object_3",
      "primitives": [
        {
          "attributes": {
            "NORMAL": 16,
            "POSITION": 15,
            "TANGENT": 17,
            "TEXCOORD_0": 18
          },
          "indices": 19,
          "material": 1,
          "mode": 4
        }
      ]
    },
    {
      "name": "Object_4",
      "primitives": [
        {
          "attributes": {
            "NORMAL": 21,
            "POSITION": 20,
            "TANGENT": 22,
            "TEXCOORD_0": 23
          },
          "indices": 24,
          "material": 1,
          "mode": 4
        }
      ]
    }
  ],
  "nodes": [
    {
      "children": [
        1
      ],
      "matrix": [
        1.0,
        0.0,
        0.0,
        0.0,
        0.0,
        2.220446049250313e-16,
        -1.0,
        0.0,
        0.0,
        1.0,
        2.220446049250313e-16,
        0.0,
        0.0,
        0.0,
        0.0,
        1.0
      ],
      "name": "Sketchfab_model"
    },
    {
      "children": [
        2,
        3,
        4,
        5,
        6
      ],
      "name": "Caldwell Conversion Uppercut_Final.obj.cleaner.materialmerger.gles"
    },
    {
      "mesh": 0,
      "name": "Object_2"
    },
    {
      "mesh": 1,
      "name": "Object_3"
    },
    {
      "mesh": 2,
      "name": "Object_4"
    },
    {
      "mesh": 3,
      "name": "Object_5"
    },
    {
      "mesh": 4,
      "name": "Object_6"
    }
  ],
  "samplers": [
    {
      "magFilter": 9729,
      "minFilter": 9987,
      "wrapS": 10497,
      "wrapT": 10497
    }
  ],
  "scene": 0,
  "scenes": [
    {
      "name": "Sketchfab_Scene",
      "nodes": [
        0
      ]
    }
  ],
  "textures": [
    {
      "sampler": 0,
      "source": 0
    },
    {
      "sampler": 0,
      "source": 1
    },
    {
      "sampler": 0,
      "source": 2
    },
    {
      "sampler": 0,
      "source": 3
    },
    {
      "sampler": 0,
      "source": 4
    },
    {
      "sampler": 0,
      "source": 5
    }
  ]
}
